<svg width="14" height="20" viewBox="0 0 14 20" fill="none" xmlns="http://www.w3.org/2000/svg">
<path d="M11.9258 2.52713C11.3127 1.83212 10.5587 1.2755 9.71399 0.894235C8.86926 0.512974 7.95308 0.315796 7.02629 0.315796C6.09951 0.315796 5.18333 0.512974 4.3386 0.894235C3.49387 1.2755 2.73992 1.83212 2.12683 2.52713L2.10531 2.55079C-0.458974 5.38614 -0.547175 9.90376 1.90955 12.851L1.99775 12.9564C2.09241 13.0704 2.18706 13.1715 2.27741 13.2984L7.02522 19.4445L11.7752 13.2963C11.8655 13.1801 11.9602 13.0682 12.0548 12.9542L12.143 12.8488C14.5976 9.90161 14.5094 5.38399 11.9473 2.54864L11.9258 2.52713ZM7.02522 11.0246C6.30191 11.0246 5.59484 10.8101 4.99343 10.4082C4.39202 10.0064 3.92328 9.43521 3.64648 8.76696C3.36968 8.0987 3.29726 7.36338 3.43837 6.65397C3.57948 5.94455 3.92779 5.29292 4.43924 4.78146C4.9507 4.27 5.60234 3.9217 6.31175 3.78059C7.02116 3.63947 7.75649 3.7119 8.42474 3.9887C9.09299 4.2655 9.66416 4.73424 10.066 5.33565C10.4679 5.93706 10.6823 6.64413 10.6823 7.36744C10.6823 8.33736 10.297 9.26757 9.61119 9.95341C8.92535 10.6393 7.99515 11.0246 7.02522 11.0246Z" fill="#990000"/>
</svg>
